<?xml version="1.0" encoding="UTF-8"?>
<svg version="1.1" xmlns="http://www.w3.org/2000/svg" width="500" height="500">
<path d="M0 0 C4.24191176 3.98382353 4.24191176 3.98382353 5.4375 6.375 C7.57388061 6.69590279 9.72343008 6.93045546 11.875 7.125 C20.70474674 8.29271829 27.1812376 11.21298909 32.875 18.1875 C38.32501314 26.37023927 39.46681432 34.64975435 38.4375 44.375 C36.52641711 52.90876635 31.66022025 58.78638241 24.52734375 63.6875 C19.18903157 66.66906245 13.43444322 67.53719176 7.4375 68.375 C7.09798381 69.93616819 6.76617456 71.49901338 6.4375 73.0625 C6.251875 73.93261719 6.06625 74.80273438 5.875 75.69921875 C5.0102257 80.98824016 5.27367613 83.71671839 8.25 88.25 C15.76340407 99.78910453 18.05252191 113.65699333 15.3828125 127.19140625 C11.9678411 138.69223967 5.35584514 148.80869455 -3.328125 157.05078125 C-4.78978561 158.31710954 -4.78978561 158.31710954 -4.5625 160.375 C-3.97605713 160.65206787 -3.38961426 160.92913574 -2.78540039 161.21459961 C-0.67763203 162.31489868 1.10919131 163.51161383 3.00390625 164.94140625 C3.65423828 165.42673828 4.30457031 165.91207031 4.97460938 166.41210938 C6.32923959 167.4323275 7.68340355 168.453165 9.03710938 169.47460938 C10.01067383 170.20067383 10.01067383 170.20067383 11.00390625 170.94140625 C11.88477905 171.60571655 11.88477905 171.60571655 12.78344727 172.28344727 C14.56404873 173.56084873 14.56404873 173.56084873 17.4375 174.375 C17.80875 173.570625 17.80875 173.570625 18.1875 172.75 C19.4375 170.375 19.4375 170.375 21.625 167.4375 C23.65968257 164.61819097 23.65968257 164.61819097 23.375 161.9375 C22.18774026 158.69232339 20.81934652 155.54173161 19.4375 152.375 C16.59386292 143.51745476 17.79251528 132.80696037 21.4375 124.375 C23.25 121.1875 23.25 121.1875 25.4375 118.375 C26.06785156 117.53001953 26.06785156 117.53001953 26.7109375 116.66796875 C33.65819468 107.85915371 42.51025252 103.85129864 53.25 101.5625 C64.25420581 100.53427401 73.8207963 104.48651282 82.6875 110.625 C90.93896563 118.87646563 95.42018062 128.68442177 95.4375 140.375 C94.54345369 151.73751585 89.93185061 160.77461212 82.17578125 169.0390625 C72.41930849 177.36198791 62.14608302 179.56748607 49.6171875 179.1171875 C46.49172691 179.09883065 46.49172691 179.09883065 44.5703125 180.6953125 C43.24958524 182.49162306 43.24958524 182.49162306 42.4375 185.375 C43.23446289 185.32899658 44.03142578 185.28299316 44.85253906 185.2355957 C48.46350311 185.03641909 52.0752483 184.86169488 55.6875 184.6875 C56.94175781 184.61466797 58.19601562 184.54183594 59.48828125 184.46679688 C61.29619141 184.38461914 61.29619141 184.38461914 63.140625 184.30078125 C64.25083008 184.24317627 65.36103516 184.18557129 66.50488281 184.1262207 C69.83412795 184.40864668 71.10503358 185.02308499 73.4375 187.375 C75.88044405 194.70383216 74.75812021 202.49834248 71.4375 209.375 C69.036953 213.25864356 66.6197441 216.53877856 62.875 219.1875 C60.22670167 221.56417799 59.4629087 223.20789297 58.0625 226.4375 C48.44506533 248.59560176 30.02618193 263.47604216 8.4375 273.375 C10.88371685 275.89110876 13.26789037 278.24577361 16.0625 280.375 C18.74275194 282.63205426 20.07131054 284.13928813 21.4375 287.375 C21.67125798 290.39352702 21.61516522 293.35469126 21.4375 296.375 C22.42234375 296.33503906 23.4071875 296.29507812 24.421875 296.25390625 C28.70987415 296.25498581 32.56733653 297.20174698 36.6875 298.3125 C37.39390625 298.49490234 38.1003125 298.67730469 38.828125 298.86523438 C41.73126929 299.62126153 44.59088427 300.42612809 47.4375 301.375 C48.0975 300.385 48.7575 299.395 49.4375 298.375 C52.9375 298.0625 52.9375 298.0625 56.4375 298.375 C58.4375 300.375 58.4375 300.375 58.6875 303.375 C58.4375 306.375 58.4375 306.375 56.4375 308.375 C54.49157568 308.36463832 52.54546422 308.34997172 50.60009766 308.30224609 C47.20519798 308.41645699 44.3061781 309.54872558 41.125 310.6875 C32.02643187 313.7285742 22.94422411 315.23253002 13.4375 316.375 C12.59912598 316.47941406 11.76075195 316.58382813 10.89697266 316.69140625 C-30.02768895 321.55587609 -77.27759466 321.46996845 -116.5625 308.375 C-118.295 308.436875 -118.295 308.436875 -120.0625 308.5 C-123.5625 308.375 -123.5625 308.375 -125.5625 307.25 C-127.05922661 304.44363762 -126.29544398 302.37340718 -125.5625 299.375 C-120.14711538 297.15961538 -120.14711538 297.15961538 -117.1875 298.25 C-116.65125 298.62125 -116.115 298.9925 -115.5625 299.375 C-115.5625 300.035 -115.5625 300.695 -115.5625 301.375 C-114.386875 300.9625 -113.21125 300.55 -112 300.125 C-105.2822402 297.87498109 -98.41643172 296.15395198 -91.5625 294.375 C-91.48773438 293.80652344 -91.41296875 293.23804688 -91.3359375 292.65234375 C-89.74278372 283.29647005 -84.59059705 278.812755 -77.1015625 273.44140625 C-76.33972656 272.91353516 -76.33972656 272.91353516 -75.5625 272.375 C-78.38455432 269.46475649 -81.25875031 266.78130151 -84.375 264.1875 C-89.93800009 259.36201886 -95.18252054 253.73495 -98 246.875 C-99.26043712 244.27168899 -99.26043712 244.27168899 -101.3125 243.78125 C-102.84093115 243.4973985 -104.37256787 243.23051636 -105.90625 242.9765625 C-119.2372709 239.95747835 -131.34747753 229.69626797 -138.5625 218.375 C-140.9304395 213.33811174 -142.5625 208.96659104 -142.5625 203.375 C-143.2225 203.375 -143.8825 203.375 -144.5625 203.375 C-145.54919759 201.48307525 -146.5265602 199.58628022 -147.5 197.6875 C-148.04527344 196.63175781 -148.59054688 195.57601562 -149.15234375 194.48828125 C-152.24003241 187.67141738 -152.46172949 180.17943247 -150.75 172.9375 C-149.57108568 170.393527 -148.71801879 169.11775987 -146.5625 167.375 C-142.04296449 167.45292303 -137.91659387 168.26941919 -133.54296875 169.34375 C-132.8173877 169.52156006 -132.09180664 169.69937012 -131.34423828 169.88256836 C-129.90313722 170.24292289 -128.46500846 170.61546228 -127.03076172 171.00219727 C-117.79179822 173.35889945 -109.34610728 172.44269188 -100.125 170.4375 C-98.79952148 170.16389648 -98.79952148 170.16389648 -97.44726562 169.88476562 C-94.07655477 169.17986411 -90.83271156 168.46507052 -87.5625 167.375 C-88.92181641 167.24544922 -88.92181641 167.24544922 -90.30859375 167.11328125 C-100.81355405 165.901598 -108.53309706 163.60944344 -115.5625 155.375 C-120.59848766 148.38057269 -121.34965753 142.8719881 -120.5625 134.375 C-119.62196621 131.39258197 -118.30170733 128.96260114 -116.5625 126.375 C-116.005625 125.50875 -115.44875 124.6425 -114.875 123.75 C-112.5625 121.375 -112.5625 121.375 -110.37890625 120.3359375 C-107.52023522 118.91803667 -105.68610009 117.7834222 -103.5625 115.375 C-102.56097601 111.10859603 -102.23177063 107.00336928 -101.93359375 102.64453125 C-100.98776201 89.2702937 -93.42167264 79.61381212 -83.734375 71.02734375 C-81.5625 69.375 -81.5625 69.375 -79.5625 69.375 C-78.72811922 64.98146368 -78.17223675 60.84431609 -78.5625 56.375 C-80.27963645 54.14495266 -81.94474632 53.10619841 -84.359375 51.68359375 C-90.02572349 48.31794349 -93.30819597 43.07084207 -95.09375 36.83203125 C-96.73313218 28.23893633 -95.92322589 20.6887141 -91.23828125 13.28125 C-86.43436967 6.52299119 -80.96768743 1.13803932 -72.5625 -0.625 C-64.88063417 -1.32684757 -58.56139335 -0.91859687 -51.5625 2.375 C-51.18480469 1.91609375 -50.80710937 1.4571875 -50.41796875 0.984375 C-37.2796492 -13.66162056 -14.0688074 -12.41247972 0 0 Z M-82.5625 165.375 C-78.5625 166.375 -78.5625 166.375 -78.5625 166.375 Z M-38.5625 282.375 C-37.9025 285.345 -37.2425 288.315 -36.5625 291.375 C-35.2425 291.375 -33.9225 291.375 -32.5625 291.375 C-32.2325 288.405 -31.9025 285.435 -31.5625 282.375 C-33.8725 282.375 -36.1825 282.375 -38.5625 282.375 Z M-1.5625 283.375 C-1.2325 284.035 -0.9025 284.695 -0.5625 285.375 C0.0975 285.045 0.7575 284.715 1.4375 284.375 C0.4475 284.045 -0.5425 283.715 -1.5625 283.375 Z " fill="#255758" transform="translate(286.5625,99.625)"/>
<path d="M0 0 C6.59682983 5.11022029 11.45940225 12.55704211 13.21875 20.71875 C14.61977825 33.42304119 13.39253604 44.40586997 5.65625 54.90625 C-0.20026666 61.76986859 -7.07164135 67.16461256 -15.78125 69.71875 C-15.78125 72.68875 -15.78125 75.65875 -15.78125 78.71875 C-12.23259864 78.79940117 -9.19735225 78.66189127 -5.78125 77.71875 C-5.08 78.646875 -4.37875 79.575 -3.65625 80.53125 C9.00595974 95.1369617 29.86497984 108.13390733 49.21875 110.71875 C56.8837103 111.21427526 64.54987561 111.04917346 72.21875 110.71875 C70.75364188 117.24084423 69.44476867 121.33134881 64.21875 125.71875 C60.65339442 127.94035396 56.99606987 129.88385974 53.21875 131.71875 C53.21875 134.02875 53.21875 136.33875 53.21875 138.71875 C42.88797575 144.24638506 32.87224085 146.65642734 21.1484375 144.03125 C12.07076997 140.99693216 6.17230346 137.15727683 1.78125 128.53125 C-0.9574154 122.59871868 -1.96948192 117.89373785 -2.3046875 111.41015625 C-2.8430673 108.36963428 -3.64920758 106.92785419 -5.78125 104.71875 C-8.32415625 104.13524495 -8.32415625 104.13524495 -10.78125 104.71875 C-14.2151115 109.86954225 -13.37285183 115.71734584 -12.78125 121.71875 C-9.60273007 134.05086167 -3.39049884 142.79277858 7.21875 149.71875 C18.85485124 156.27171228 31.2951562 156.63335649 44.21875 154.71875 C24.93824625 174.37797793 2.46320962 184.35126589 -24.90625 185.15625 C-42.3321503 184.79140064 -57.26380852 178.8890138 -69.79296875 166.7734375 C-79.24089103 156.64919974 -82.33737717 145.16912205 -82.08203125 131.58203125 C-80.89633726 116.35279284 -72.53063252 103.24771178 -62.1796875 92.4609375 C-58.60001584 88.36821844 -55.65383743 83.87925075 -52.67431641 79.33813477 C-50.02895744 75.34946782 -47.2828428 72.02420746 -43.78125 68.71875 C-42.70135681 67.56816403 -41.63601788 66.40352636 -40.59375 65.21875 C-40.10519531 64.6721875 -39.61664063 64.125625 -39.11328125 63.5625 C-35.14810924 58.07405076 -34.97562577 52.24255488 -35.78125 45.71875 C-37.89763688 37.96241723 -42.06519376 34.18047174 -48.8671875 30.19140625 C-49.82882813 29.70542969 -50.79046875 29.21945313 -51.78125 28.71875 C-52.81636719 28.16445312 -53.85148437 27.61015625 -54.91796875 27.0390625 C-59.84094025 24.97839339 -64.97487319 25.39819132 -70.21875 25.53125 C-71.74532227 25.55155273 -71.74532227 25.55155273 -73.30273438 25.57226562 C-75.79613214 25.6073839 -78.28840512 25.65656441 -80.78125 25.71875 C-80.56698242 13.99559085 -77.65304558 5.04634491 -69.09375 -3.28125 C-50.30221404 -18.59801969 -18.9702903 -12.07200292 0 0 Z " fill="#FDFDFD" transform="translate(276.78125,185.28125)"/>
<path d="M0 0 C6.59682983 5.11022029 11.45940225 12.55704211 13.21875 20.71875 C14.61977825 33.42304119 13.39253604 44.40586997 5.65625 54.90625 C-0.20026666 61.76986859 -7.07164135 67.16461256 -15.78125 69.71875 C-15.78125 72.68875 -15.78125 75.65875 -15.78125 78.71875 C-13.80125 79.70875 -13.80125 79.70875 -11.78125 80.71875 C-18.77692169 83.89860077 -26.04774666 83.91193866 -33.59375 83.90625 C-34.47579102 83.90689453 -35.35783203 83.90753906 -36.26660156 83.90820312 C-42.3418174 83.85882937 -47.88865312 83.29010917 -53.78125 81.71875 C-50.56441508 76.15965715 -47.57085451 71.04709661 -42.53125 66.96875 C-38.08181063 63.31262153 -36.2244913 59.98765461 -35.4375 54.18359375 C-35.0402515 47.12250163 -36.34158083 41.3232356 -40.78125 35.71875 C-44.22345821 32.90239783 -47.81704092 30.72211035 -51.78125 28.71875 C-52.81636719 28.16445312 -53.85148437 27.61015625 -54.91796875 27.0390625 C-59.84094025 24.97839339 -64.97487319 25.39819132 -70.21875 25.53125 C-71.74532227 25.55155273 -71.74532227 25.55155273 -73.30273438 25.57226562 C-75.79613214 25.6073839 -78.28840512 25.65656441 -80.78125 25.71875 C-80.56698242 13.99559085 -77.65304558 5.04634491 -69.09375 -3.28125 C-50.30221404 -18.59801969 -18.9702903 -12.07200292 0 0 Z " fill="#FAFBFB" transform="translate(276.78125,185.28125)"/>
<path d="M0 0 C2.00313282 1.21796603 3.723032 2.50626629 5.48046875 4.0546875 C6.40859375 4.8384375 7.33671875 5.6221875 8.29296875 6.4296875 C10.88600485 9.54133082 12.07205868 12.27421836 13.48046875 16.0546875 C17.62140573 16.26439309 17.62140573 16.26439309 21.48046875 15.0546875 C27.74372485 14.75581843 31.88035137 16.47846404 36.75390625 20.2890625 C40.75187189 24.37747985 41.91121296 27.74131594 41.91796875 33.4296875 C41.71423489 40.38014649 40.78958199 43.92047454 35.6328125 48.8046875 C30.3460069 52.94969661 25.86785608 53.82587382 19.21484375 53.4375 C14.8462848 52.82590175 11.90996524 51.8662046 9.12109375 48.33203125 C8.26418224 47.10463152 7.43943666 45.85383111 6.65625 44.578125 C5.46272594 42.73888043 5.46272594 42.73888043 2.48046875 42.0546875 C3.02918632 43.2900684 3.59533774 44.51770775 4.16796875 45.7421875 C4.48121094 46.42667969 4.79445313 47.11117187 5.1171875 47.81640625 C6.44942815 50.27320561 6.44942815 50.27320561 9.16796875 52.3046875 C11.48046875 55.0546875 11.48046875 55.0546875 11.53125 59.04296875 C11.31336866 60.48890853 11.06639896 61.93071612 10.79296875 63.3671875 C10.67501953 64.10775391 10.55707031 64.84832031 10.43554688 65.61132812 C10.14221354 67.42999478 9.81468849 69.24308876 9.48046875 71.0546875 C5.65186474 69.82929969 1.94649521 68.42955458 -1.76855469 66.89697266 C-17.9748834 60.37770138 -34.22301133 59.56258419 -51.51953125 60.0546875 C-51.37748384 58.47101003 -51.23072972 56.88775432 -51.08203125 55.3046875 C-50.96021484 53.98210937 -50.96021484 53.98210937 -50.8359375 52.6328125 C-50.28413069 48.13660887 -50.28413069 48.13660887 -49.51953125 46.0546875 C-47.52807734 45.03777486 -45.52766051 44.03826102 -43.51953125 43.0546875 C-42.11486172 41.00375605 -42.11486172 41.00375605 -41.51953125 39.0546875 C-42.30328125 39.5496875 -43.08703125 40.0446875 -43.89453125 40.5546875 C-48.58396059 42.49514102 -52.5086462 42.78918205 -57.51953125 42.0546875 C-62.50622132 39.56134247 -66.01628599 36.06117801 -68.51953125 31.0546875 C-69.28062027 24.34213191 -68.79026271 18.48032098 -64.51953125 13.0546875 C-60.80450759 9.60801769 -57.10618403 7.76452988 -52.01953125 7.4921875 C-47.38888574 7.77307588 -43.20204879 9.19345085 -39.51953125 12.0546875 C-38.296875 14.1953125 -38.296875 14.1953125 -37.51953125 16.0546875 C-35.13425795 16.18284115 -35.13425795 16.18284115 -32.51953125 15.0546875 C-31.51600299 13.38571008 -31.51600299 13.38571008 -30.70703125 11.3671875 C-28.50736899 6.36632269 -25.09875894 3.86304198 -20.51953125 1.0546875 C-19.91625 0.67957031 -19.31296875 0.30445312 -18.69140625 -0.08203125 C-13.14741247 -2.28566906 -5.54321843 -2.07978118 0 0 Z " fill="#FCFDFD" transform="translate(271.51953125,102.9453125)"/>
<path d="M0 0 C1.4286551 0.72690374 2.84661202 1.47543779 4.25 2.25 C5.3225 2.806875 6.395 3.36375 7.5 3.9375 C13.24094385 8.76511188 15.54625776 15.01214707 16.5234375 22.28515625 C16.92100837 30.2212825 14.32013366 37.60786425 9.1953125 43.6875 C2.68306468 49.81667442 -5.0181242 53.40712922 -14.0625 53.375 C-15.13951172 53.37886719 -15.13951172 53.37886719 -16.23828125 53.3828125 C-19.44494764 53.21325316 -22.57772571 52.7368533 -25.75 52.25 C-26.30429687 53.08144531 -26.85859375 53.91289062 -27.4296875 54.76953125 C-31.58984375 61.00976562 -31.58984375 61.00976562 -35.75 67.25 C-37.4 66.92 -39.05 66.59 -40.75 66.25 C-40.15149598 63.26034358 -39.26087951 61.25221502 -37.46484375 58.796875 C-36.79291992 57.86875 -36.79291992 57.86875 -36.10742188 56.921875 C-35.63884766 56.28765625 -35.17027344 55.6534375 -34.6875 55 C-33.97883789 54.02546875 -33.97883789 54.02546875 -33.25585938 53.03125 C-32.09276471 51.43346338 -30.92211399 49.84118197 -29.75 48.25 C-30.75528369 46.23492462 -31.76422008 44.22204278 -32.78515625 42.21484375 C-33.29369141 41.21130859 -33.29369141 41.21130859 -33.8125 40.1875 C-34.32490234 39.18009766 -34.32490234 39.18009766 -34.84765625 38.15234375 C-38.10897388 31.27675203 -37.98997381 22.92415059 -35.5859375 15.80078125 C-32.23583047 8.8170966 -28.69740253 4.46002671 -21.625 1.0625 C-20.96242188 0.73894531 -20.29984375 0.41539062 -19.6171875 0.08203125 C-13.17524857 -2.78853986 -6.47107936 -2.79682243 0 0 Z " fill="#C4D1D7" transform="translate(353.75,214.75)"/>
<path d="M0 0 C1.32 0 2.64 0 4 0 C3.855625 1.19625 3.71125 2.3925 3.5625 3.625 C3.57611076 6.20197116 3.67698533 7.55676951 5.20703125 9.65625 C7.05225714 11.28108592 8.95052104 12.64098721 11 14 C11.79535156 14.56203125 12.59070313 15.1240625 13.41015625 15.703125 C18.83216391 19.28986268 22.5013624 21.17188547 29 20 C30.66600339 18.91074103 30.66600339 18.91074103 32.25 17.5625 C35.48066138 14.90370282 37.91274737 14.6319397 42.0625 14.4375 C47.16236546 14.18888156 50.20394641 13.69871888 54 10 C55.29482384 7.68816893 56.12653884 5.52333223 57 3 C57.33 3.66 57.66 4.32 58 5 C58.98484375 4.96003906 59.9696875 4.92007812 60.984375 4.87890625 C65.27237415 4.87998581 69.12983653 5.82674698 73.25 6.9375 C73.95640625 7.11990234 74.6628125 7.30230469 75.390625 7.49023438 C78.29376929 8.24626153 81.15338427 9.05112809 84 10 C84.66 9.01 85.32 8.02 86 7 C89.5 6.6875 89.5 6.6875 93 7 C95 9 95 9 95.25 12 C95 15 95 15 93 17 C91.05407568 16.98963832 89.10796422 16.97497172 87.16259766 16.92724609 C83.76769798 17.04145699 80.8686781 18.17372558 77.6875 19.3125 C68.58893187 22.3535742 59.50672411 23.85753002 50 25 C49.16162598 25.10441406 48.32325195 25.20882813 47.45947266 25.31640625 C6.53481105 30.18087609 -40.71509466 30.09496845 -80 17 C-81.155 17.04125 -82.31 17.0825 -83.5 17.125 C-87 17 -87 17 -89 15.875 C-90.49672661 13.06863762 -89.73294398 10.99840718 -89 8 C-83.58461538 5.78461538 -83.58461538 5.78461538 -80.625 6.875 C-80.08875 7.24625 -79.5525 7.6175 -79 8 C-79 8.66 -79 9.32 -79 10 C-77.845 9.5875 -76.69 9.175 -75.5 8.75 C-68.45816876 6.38765212 -61.21397466 4.74374602 -54 3 C-53.69707031 3.54269531 -53.39414063 4.08539063 -53.08203125 4.64453125 C-52.45361328 5.71767578 -52.45361328 5.71767578 -51.8125 6.8125 C-51.40644531 7.52019531 -51.00039062 8.22789062 -50.58203125 8.95703125 C-48.62005905 11.4906398 -46.90040461 12.64030379 -44 14 C-41.1159672 14.38803107 -41.1159672 14.38803107 -38.125 14.375 C-32.95241313 14.65289233 -30.66565239 15.6154546 -26.81274414 18.90576172 C-23.38592998 20.97431136 -19.7320559 19.89725517 -16 19 C-12.94111056 17.78689395 -10.22699614 16.23591887 -7.4375 14.5 C-6.71498047 14.10296875 -5.99246094 13.7059375 -5.24804688 13.296875 C-3.13211823 11.99969263 -1.56936756 10.92735302 0 9 C0.60665848 5.90173148 0.45821269 3.11122565 0 0 Z " fill="#D1D8DD" transform="translate(250,391)"/>
<path d="M0 0 C0.66 0 1.32 0 2 0 C2.721875 0.763125 3.44375 1.52625 4.1875 2.3125 C8.41074944 6.34804947 12.15709397 7.79523266 17.9375 8.4375 C22.58842578 8.26624498 26.01812718 6.2244151 30 4 C31.65697379 3.30959426 33.31923769 2.63028587 35 2 C35.50789063 2.48210937 36.01578125 2.96421875 36.5390625 3.4609375 C42.41187086 8.84984405 46.69113312 11.40341654 54.921875 11.19921875 C57.74270555 10.92880078 60.37647747 10.27108039 63.1015625 9.51171875 C65.70440416 8.81012974 68.3364541 8.39953188 71 8 C71.99 9.65 72.98 11.3 74 13 C73.01 13 72.02 13 71 13 C71.54871757 14.2353809 72.11486899 15.46302025 72.6875 16.6875 C73.00074219 17.37199219 73.31398438 18.05648437 73.63671875 18.76171875 C74.9689594 21.21851811 74.9689594 21.21851811 77.6875 23.25 C80 26 80 26 80.05078125 29.98828125 C79.83289991 31.43422103 79.58593021 32.87602862 79.3125 34.3125 C79.13557617 35.42334961 79.13557617 35.42334961 78.95507812 36.55664062 C78.66174479 38.37530728 78.33421974 40.18840126 78 42 C74.17139599 40.77461219 70.46602646 39.37486708 66.75097656 37.84228516 C50.54464785 31.32301388 34.29651992 30.50789669 17 31 C17.14204741 29.41632253 17.28880153 27.83306682 17.4375 26.25 C17.51871094 25.36828125 17.59992188 24.4865625 17.68359375 23.578125 C18.23540056 19.08192137 18.23540056 19.08192137 19 17 C20.99145391 15.98308736 22.99187074 14.98357352 25 14 C26.40466953 11.94906855 26.40466953 11.94906855 27 10 C26.21625 10.495 25.4325 10.99 24.625 11.5 C19.93557066 13.44045352 16.01088505 13.73449455 11 13 C6.58929061 10.79464531 3.75244254 8.07769265 1 4 C0.25 1.6875 0.25 1.6875 0 0 Z " fill="#CBD3D9" transform="translate(203,132)"/>
<path d="M0 0 C1.19544434 0.00966797 1.19544434 0.00966797 2.41503906 0.01953125 C10.0457976 0.2557584 15.64794671 1.94898795 21.1796875 7.40234375 C23.65854953 10.37812052 25.07582112 12.78876956 26 16.5625 C24.57216925 22.15483711 21.32166382 25.23204889 16.4609375 28.20703125 C6.30778825 33.48923928 -3.60248223 36.42896585 -15.12109375 34 C-21.02525501 32.03566658 -24.3764209 28.56036865 -27.75 23.5 C-28.19482737 18.9775884 -28.21318152 16.50691634 -26.3125 12.375 C-22.92665897 8.57625153 -19.13832188 6.03500147 -14.75 3.5 C-13.84507812 2.95730469 -12.94015625 2.41460937 -12.0078125 1.85546875 C-7.88187959 0.13880362 -4.42660206 -0.03712035 0 0 Z " fill="#FB957C" transform="translate(205.75,220.5)"/>
<path d="M0 0 C-1.41590397 2.9593064 -3.04694158 5.67502996 -4.8125 8.4375 C-9.66743042 16.44575532 -14.16203942 26.01816634 -14.09765625 35.546875 C-14.09443359 36.39121094 -14.09121094 37.23554688 -14.08789062 38.10546875 C-14.07951172 38.97816406 -14.07113281 39.85085938 -14.0625 40.75 C-14.05798828 41.63816406 -14.05347656 42.52632813 -14.04882812 43.44140625 C-14.037074 45.62767329 -14.02064249 47.81380179 -14 50 C-24.31151892 48.89847276 -32.15751479 41.48289941 -38.671875 33.8828125 C-40 32 -40 32 -40 30 C-38.68 29.67 -37.36 29.34 -36 29 C-35.691924 26.62081147 -35.691924 26.62081147 -36 24 C-37.55697647 22.34887349 -37.55697647 22.34887349 -39.6875 21.125 C-45.68796165 16.98308842 -49.24937184 12.16166064 -51 5 C-51 3.68 -51 2.36 -51 1 C-43.41280961 1.90017513 -43.41280961 1.90017513 -40.8515625 2.51953125 C-29.31638828 4.4631291 -16.88006069 3.57325313 -5.6171875 0.65625 C-3 0 -3 0 0 0 Z " fill="#C8D4DB" transform="translate(198,280)"/>
<path d="M0 0 C2 2 2 2 3.625 5.625 C8.882072 16.21561049 19.74338292 23.20217097 30.515625 27.35546875 C50.27437589 33.60338427 69.59680836 32.16743657 88.07666016 23.02929688 C92.09101762 20.88096848 95.77827021 18.29116836 99.44921875 15.6015625 C103.50182458 13.05704735 107.12395883 12.87880992 111.8125 13 C116.31216575 13.053969 120.5513992 12.65905197 125 12 C105.71949625 31.65922793 83.24445962 41.63251589 55.875 42.4375 C38.4490997 42.07265064 23.51744148 36.1702638 10.98828125 24.0546875 C4.50333819 17.10552943 0.52984021 9.5371237 0 0 Z " fill="#C9D3D9" transform="translate(196,328)"/>
<path d="M0 0 C11.2906037 4.84201779 16.11090591 10.85831944 21 22 C23.91293965 30.73881895 23.06128253 43.17241292 19.37890625 51.55078125 C13.49337065 62.00469292 4.67833474 70.5752684 -7 74 C-7 76.97 -7 79.94 -7 83 C-5.68 83.66 -4.36 84.32 -3 85 C-9.99567169 88.17985077 -17.26649666 88.19318866 -24.8125 88.1875 C-25.69454102 88.18814453 -26.57658203 88.18878906 -27.48535156 88.18945312 C-33.5605674 88.14007937 -39.10740312 87.57135917 -45 86 C-37.15791684 72.22734145 -37.15791684 72.22734145 -30 69 C-27.24400353 68.49928593 -24.58620192 68.31073645 -21.7890625 68.18359375 C-11.43259209 67.50186531 -1.45787345 62.2117023 5.4375 54.5 C13.40124857 44.2576066 14.50614502 33.67539944 13 21 C10.83159864 14.09458762 7.03307619 8.17288386 2 3 C1.34 2.67 0.68 2.34 0 2 C0 1.34 0 0.68 0 0 Z " fill="#C9D3D9" transform="translate(268,181)"/>
<path d="M0 0 C1.4286551 0.72690374 2.84661202 1.47543779 4.25 2.25 C5.3225 2.806875 6.395 3.36375 7.5 3.9375 C12.5320202 8.16897153 15.27813924 13.78105183 16.25 20.25 C16.62247968 25.30879376 16.62765633 29.64329086 14.25 34.25 C13.92 34.25 13.59 34.25 13.25 34.25 C13.15912109 33.11111328 13.15912109 33.11111328 13.06640625 31.94921875 C12.98261719 30.95535156 12.89882813 29.96148437 12.8125 28.9375 C12.73128906 27.95136719 12.65007812 26.96523437 12.56640625 25.94921875 C12.33187441 23.15624401 12.33187441 23.15624401 11.25 20.25 C8.18004976 19.4105874 5.43195158 18.94300346 2.25 19.25 C-0.56589546 21.21414649 -2.31663067 23.75607777 -4.25 26.5625 C-4.77335937 27.26568359 -5.29671875 27.96886719 -5.8359375 28.69335938 C-7.64586742 31.14801821 -9.38469228 33.51938456 -10.75 36.25 C-12.4 35.59 -14.05 34.93 -15.75 34.25 C-14.29971846 26.6763075 -9.82859604 21.95674008 -5.0078125 16.15234375 C-3.45267024 14.24288413 -3.45267024 14.24288413 -4.0625 11.5 C-4.289375 10.7575 -4.51625 10.015 -4.75 9.25 C-7.58719417 8.88424072 -7.58719417 8.88424072 -10.75 9.25 C-12.9253828 11.05964236 -12.9253828 11.05964236 -14.625 13.625 C-15.29402344 14.53636719 -15.96304687 15.44773438 -16.65234375 16.38671875 C-17.34457031 17.33160156 -18.03679687 18.27648437 -18.75 19.25 C-20.22603189 20.98184331 -21.70508876 22.7111141 -23.1875 24.4375 C-26.43806397 28.46412817 -27.75 31.08221115 -27.75 36.25 C-26.43 37.24 -25.11 38.23 -23.75 39.25 C-24.41 39.25 -25.07 39.25 -25.75 39.25 C-25.70617187 39.80945313 -25.66234375 40.36890625 -25.6171875 40.9453125 C-25.63825981 47.49880141 -27.83243093 51.57715573 -31.5625 56.75 C-32.00126465 57.36117676 -32.4400293 57.97235352 -32.89208984 58.60205078 C-35.18934999 61.64487548 -37.09865795 63.9562844 -40.75 65.25 C-39.27869627 60.8926774 -36.91919385 57.53065866 -34.125 53.9375 C-33.70476562 53.38771484 -33.28453125 52.83792969 -32.8515625 52.27148438 C-31.82279961 50.92707832 -30.7870991 49.58798587 -29.75 48.25 C-30.75528369 46.23492462 -31.76422008 44.22204278 -32.78515625 42.21484375 C-33.29369141 41.21130859 -33.29369141 41.21130859 -33.8125 40.1875 C-34.32490234 39.18009766 -34.32490234 39.18009766 -34.84765625 38.15234375 C-38.10897388 31.27675203 -37.98997381 22.92415059 -35.5859375 15.80078125 C-32.23583047 8.8170966 -28.69740253 4.46002671 -21.625 1.0625 C-20.96242188 0.73894531 -20.29984375 0.41539062 -19.6171875 0.08203125 C-13.17524857 -2.78853986 -6.47107936 -2.79682243 0 0 Z " fill="#C7D2D7" transform="translate(353.75,214.75)"/>
<path d="M0 0 C0.99 0 1.98 0 3 0 C3.268125 0.83402344 3.53625 1.66804688 3.8125 2.52734375 C7.26640789 12.44596741 11.62604388 19.8359951 21 25 C26.17788361 27.28790206 31.41485874 27.79517265 37 27 C38.69175663 25.69864875 40.35704805 24.36244796 42 23 C44.42578125 22.46484375 44.42578125 22.46484375 47.25 22.0625 C57.29732555 20.48671302 63.79241851 14.86679749 71 8 C71.88658621 10.41796239 72.20826316 11.53447058 71.13671875 13.9296875 C66.47936014 20.18134407 60.89764331 23.55117835 54 27 C54 29.31 54 31.62 54 34 C43.66922575 39.52763506 33.65349085 41.93767734 21.9296875 39.3125 C12.85201997 36.27818216 6.95355346 32.43852683 2.5625 23.8125 C0.24762624 18.79799145 -1.16786668 14.50676345 -1.6875 9 C-1.79449219 7.948125 -1.90148437 6.89625 -2.01171875 5.8125 C-2 3 -2 3 0 0 Z " fill="#CAD3DA" transform="translate(276,290)"/>
<path d="M0 0 C1 1 1 1 1.1875 3.8125 C1.00782439 6.86698544 0.57664404 8.43795344 -1 11 C-7.00798402 10.41098196 -12.7032971 9.18440623 -18.55859375 7.71875 C-26.22578119 6.11743049 -33.74929237 5.86297931 -41.5625 5.9375 C-42.47580078 5.94201172 -43.38910156 5.94652344 -44.33007812 5.95117188 C-46.55341452 5.96281238 -48.77671654 5.98074153 -51 6 C-50.67 2.7 -50.34 -0.6 -50 -4 C-33.04707136 -7.47752382 -16.22570327 -6.1545771 0 0 Z " fill="#F9FBFB" transform="translate(271,157)"/>
<path d="M0 0 C6.33619595 0.02933424 10.28034486 1.3303108 15.2734375 5.234375 C19.27140314 9.32279235 20.43074421 12.68662844 20.4375 18.375 C20.23376614 25.32545899 19.30911324 28.86578704 14.15234375 33.75 C8.86553815 37.89500911 4.38738733 38.77118632 -2.265625 38.3828125 C-6.70090927 37.7618727 -9.55766629 36.73080045 -12.46484375 33.2421875 C-13.70836364 31.5405287 -14.86199064 29.77395577 -16 28 C-15.34 27.67 -14.68 27.34 -14 27 C-13.01 27.33 -12.02 27.66 -11 28 C-6.03533399 28.52124721 -2.12117176 28.53000847 2.4375 26.375 C6.48517185 22.62349926 7.83493963 19.67811373 8.375 14.1875 C8.21216736 9.51058459 6.68277863 5.32714504 5 1 C3.35 1 1.7 1 0 1 C0 0.67 0 0.34 0 0 Z " fill="#C6D2DA" transform="translate(293,118)"/>
<path d="M0 0 C1.32 0 2.64 0 4 0 C3.855625 1.19625 3.71125 2.3925 3.5625 3.625 C3.57611076 6.20197116 3.67698533 7.55676951 5.20703125 9.65625 C9.93499478 13.81951531 15.54093204 16.90250067 21 20 C20.505 22.475 20.505 22.475 20 25 C17.15036367 25.94987878 15.55762509 26.09747457 12.62036133 26.02172852 C11.29933159 25.99158409 11.29933159 25.99158409 9.95161438 25.96083069 C9.00465195 25.93379562 8.05768951 25.90676056 7.08203125 25.87890625 C6.10965012 25.85529526 5.13726898 25.83168427 4.13542175 25.80735779 C1.02763183 25.73074376 -2.0799075 25.64670945 -5.1875 25.5625 C-7.2936075 25.50927707 -9.39972726 25.45653668 -11.50585938 25.40429688 C-16.67073181 25.27513159 -21.83539166 25.1393108 -27 25 C-26.67 23.35 -26.34 21.7 -26 20 C-25.01 20.0825 -24.02 20.165 -23 20.25 C-18.24523077 20.22147138 -15.03271069 18.35009692 -11 16 C-10.02546875 15.50242187 -9.0509375 15.00484375 -8.046875 14.4921875 C-5.05792995 12.84443574 -2.50171254 11.32591653 0 9 C0.9096352 5.80865417 0.72196277 3.21601596 0 0 Z " fill="#C9D4DB" transform="translate(250,391)"/>
<path d="M0 0 C1.11181641 0.33451172 1.11181641 0.33451172 2.24609375 0.67578125 C3.36177734 0.99095703 3.36177734 0.99095703 4.5 1.3125 C5.22058594 1.53550781 5.94117188 1.75851562 6.68359375 1.98828125 C8.0151622 2.32859634 9.3479766 2.66421995 10.68359375 2.98828125 C11.21611141 4.90173452 11.73418858 6.81921075 12.24609375 8.73828125 C12.53613281 9.805625 12.82617188 10.87296875 13.125 11.97265625 C13.94176827 16.38206259 13.94176827 16.38206259 12.68359375 18.98828125 C10.6171875 20.69140625 10.6171875 20.69140625 8.12109375 22.23828125 C7.29480469 22.7590625 6.46851563 23.27984375 5.6171875 23.81640625 C4.97910156 24.203125 4.34101563 24.58984375 3.68359375 24.98828125 C1.14251863 23.78802875 -0.72760128 22.65540908 -2.94140625 20.86328125 C-7.02098191 18.59685033 -9.67832819 18.69290175 -14.2421875 18.9453125 C-15.26892578 18.96658203 -15.26892578 18.96658203 -16.31640625 18.98828125 C-17.31640625 17.98828125 -17.31640625 17.98828125 -17.671875 15.7109375 C-17.17494374 11.90477168 -15.53014035 10.86112374 -12.62890625 8.42578125 C-11.75878906 7.68199219 -10.88867188 6.93820312 -9.9921875 6.171875 C-8.66767578 5.09099609 -8.66767578 5.09099609 -7.31640625 3.98828125 C-6.4759375 3.22257812 -5.63546875 2.456875 -4.76953125 1.66796875 C-2.31640625 -0.01171875 -2.31640625 -0.01171875 0 0 Z " fill="#F99880" transform="translate(225.31640625,377.01171875)"/>
<path d="M0 0 C1.33333333 1.66666667 2.66666667 3.33333333 4 5 C6.02463255 5.65213292 6.02463255 5.65213292 8 6 C9.5 7.375 9.5 7.375 11 9 C12.31963709 10.01800576 13.65009646 11.02248365 15 12 C14.67 13.65 14.34 15.3 14 17 C13.19175781 16.94199219 12.38351562 16.88398438 11.55078125 16.82421875 C4.75395335 16.3321969 4.75395335 16.3321969 -1 19.4375 C-1.66 20.283125 -2.32 21.12875 -3 22 C-4.796875 22.875 -4.796875 22.875 -7 23 C-9.578125 21.56640625 -9.578125 21.56640625 -12.25 19.5625 C-13.14203125 18.90378906 -14.0340625 18.24507813 -14.953125 17.56640625 C-15.62859375 17.04949219 -16.3040625 16.53257812 -17 16 C-16.68917128 14.24970238 -16.37626821 12.49977306 -16.0625 10.75 C-15.88847656 9.77546875 -15.71445312 8.8009375 -15.53515625 7.796875 C-15.09620271 5.50278205 -14.59651408 3.25708029 -14 1 C-12.41913952 0.63495397 -10.83516093 0.28339494 -9.25 -0.0625 C-8.36828125 -0.25972656 -7.4865625 -0.45695312 -6.578125 -0.66015625 C-3.96124661 -1.0051084 -2.43897628 -0.97028839 0 0 Z " fill="#F69B82" transform="translate(282,379)"/>
<path d="M0 0 C2.75 0.6875 2.75 0.6875 4.75 3.6875 C4.54483133 7.80871411 1.65949806 10.72102205 -0.8125 13.8125 C-1.26069092 14.37928467 -1.70888184 14.94606934 -2.1706543 15.5300293 C-3.08766224 16.68910001 -4.00668966 17.84657588 -4.92773438 19.00244141 C-6.15419545 20.56540935 -7.33696311 22.16239649 -8.515625 23.76171875 C-9.52882813 25.11716797 -9.52882813 25.11716797 -10.5625 26.5 C-11.15675781 27.31082031 -11.75101562 28.12164062 -12.36328125 28.95703125 C-14.25 30.6875 -14.25 30.6875 -16.85546875 31.07421875 C-19.25 30.6875 -19.25 30.6875 -21.25 28.6875 C-21.15595308 22.71913783 -18.98902792 19.46933197 -15.0625 15.25 C-14.05249379 14.12436034 -13.04466787 12.99676044 -12.0390625 11.8671875 C-11.55469727 11.32674805 -11.07033203 10.78630859 -10.57128906 10.22949219 C-8.85201012 8.2230314 -7.40019458 6.07295282 -5.9375 3.875 C-3.87702177 1.04408208 -3.62634313 0.76711105 0 0 Z " fill="#1D5859" transform="translate(346.25,222.3125)"/>
<path d="M0 0 C2.78977887 0.6607371 3.85700791 1.11684608 5.375 3.5625 C5.0067917 7.74479051 3.67936636 9.7597069 0.8125 12.75 C-3.00033045 16.844499 -6.50547106 21.09760161 -9.9609375 25.49609375 C-11.625 27.5625 -11.625 27.5625 -13.625 29.5625 C-18.18055556 29.00694444 -18.18055556 29.00694444 -19.625 27.5625 C-19.40477608 21.27825301 -17.27152275 18.09342042 -13.375 13.5 C-12.89675781 12.91412109 -12.41851562 12.32824219 -11.92578125 11.72460938 C-10.97293237 10.56130743 -10.01192308 9.40463704 -9.04248047 8.25512695 C-8.09293399 7.12126445 -7.15963727 5.97360492 -6.24267578 4.81323242 C-2.90647092 0.6228152 -2.90647092 0.6228152 0 0 Z " fill="#245457" transform="translate(358.625,232.4375)"/>
<path d="M0 0 C2 2 2 2 2.5 4.6875 C1.77144102 9.51420321 -0.27728848 11.92080553 -4 15 C-14.59506181 21.48465268 -25.93945491 25.23749136 -38.40625 22.46484375 C-42.45165788 21.08366904 -45.2792271 19.28760059 -48 16 C-45 15 -45 15 -42.79296875 15.91796875 C-35.26364989 18.83492165 -23.91163949 17.86829395 -16.3828125 15.17578125 C-9.06087772 11.56282655 -3.2902288 7.61204748 0 0 Z " fill="#ED7C6C" transform="translate(229,232)"/>
<path d="M0 0 C2.5 1.625 2.5 1.625 4 4 C4.64250722 7.77472994 4.26836859 9.50620179 2.4375 12.875 C0 15 0 15 -3.5 15.5625 C-7 15 -7 15 -9.4375 13.5 C-11.78057502 9.75107996 -11.48773804 7.38964238 -11 3 C-8.88563468 -1.22873063 -4.1705953 -0.74684705 0 0 Z " fill="#28585B" transform="translate(253,197)"/>
<path d="M0 0 C2 1.625 2 1.625 3 4 C2.93439072 7.739729 2.76345433 10.0603639 0.375 13 C-3.11581787 14.46981805 -5.39148956 13.98413921 -9 13 C-11.57572291 10.75662843 -11.93881541 9.36710755 -12.5 6 C-12 3 -12 3 -9.9375 0.5625 C-6.08703161 -1.48562148 -4.14064223 -1.22685696 0 0 Z " fill="#2A5456" transform="translate(216,193)"/>
<path d="M0 0 C1.03447266 0.01160156 1.03447266 0.01160156 2.08984375 0.0234375 C2.77949219 0.01570313 3.46914063 0.00796875 4.1796875 0 C9.33651082 0.02010457 9.33651082 0.02010457 11.58984375 2.2734375 C11.90234375 5.2734375 11.90234375 5.2734375 11.58984375 8.2734375 C8.01862657 10.65424895 6.32309742 10.54250621 2.08984375 10.5234375 C0.94515625 10.52859375 -0.19953125 10.53375 -1.37890625 10.5390625 C-4.41015625 10.2734375 -4.41015625 10.2734375 -7.41015625 8.2734375 C-7.72265625 5.2734375 -7.72265625 5.2734375 -7.41015625 2.2734375 C-4.91805186 -0.21866689 -3.40654837 0.01328089 0 0 Z " fill="#2D5A5C" transform="translate(361.41015625,397.7265625)"/>
<path d="M0 0 C1.73056641 -0.02513672 1.73056641 -0.02513672 3.49609375 -0.05078125 C6.5625 0.3125 6.5625 0.3125 8.44921875 1.671875 C10.03544279 4.00946833 9.98656567 5.55607315 9.5625 8.3125 C5.97967765 10.70104824 4.24856967 10.58148802 0 10.5625 C-1.73443359 10.57023437 -1.73443359 10.57023437 -3.50390625 10.578125 C-6.4375 10.3125 -6.4375 10.3125 -8.4375 8.3125 C-8.6875 5.3125 -8.6875 5.3125 -8.4375 2.3125 C-5.65940605 -0.46559395 -3.86994797 0.01294297 0 0 Z " fill="#305E61" transform="translate(142.4375,397.6875)"/>
<path d="M0 0 C-0.74072266 1.92089844 -0.74072266 1.92089844 -2 4 C-3.87255859 4.82128906 -3.87255859 4.82128906 -6.1484375 5.265625 C-6.9830249 5.43384766 -7.8176123 5.60207031 -8.67749023 5.77539062 C-9.56766846 5.93201172 -10.45784668 6.08863281 -11.375 6.25 C-12.28386963 6.41693359 -13.19273926 6.58386719 -14.12915039 6.75585938 C-25.91388804 8.81249599 -35.77231323 8.76959097 -47 4 C-47.33 3.34 -47.66 2.68 -48 2 C-47.39704102 2.06928711 -46.79408203 2.13857422 -46.17285156 2.20996094 C-32.55505908 3.6857032 -18.95235414 4.10996222 -5.6171875 0.65625 C-3 0 -3 0 0 0 Z " fill="#EEF3F5" transform="translate(198,280)"/>
<path d="M0 0 C2.375 1.125 2.375 1.125 4 3 C4.62060815 6.64607289 4.47464453 8.30628876 2.375 11.375 C-0.67785921 13.46379841 -2.36968224 13.54068562 -6 13 C-7.875 11.9375 -7.875 11.9375 -9 10 C-9.63316583 4.09045226 -9.63316583 4.09045226 -7.875 1.0625 C-5.09808875 -0.51108304 -3.13770673 -0.38420899 0 0 Z " fill="#FA987D" transform="translate(263,216)"/>
<path d="M0 0 C3.38306996 1.12768999 4.19038809 2.4562099 6.328125 5.16796875 C9.7644943 8.93352296 13.96173179 11.91052878 18 15 C17.01 15.33 16.02 15.66 15 16 C15.33 17.32 15.66 18.64 16 20 C11.87939342 19.79517453 10.31105726 19.30116815 7.296875 16.3828125 C6.43194097 15.30955595 5.58319975 14.22307499 4.75 13.125 C4.316875 12.58230469 3.88375 12.03960937 3.4375 11.48046875 C-2 4.61646412 -2 4.61646412 -2 1 C-1.34 0.67 -0.68 0.34 0 0 Z " fill="#C9D5DD" transform="translate(269,263)"/>
<path d="M0 0 C0 0.66 0 1.32 0 2 C-0.66386719 2.29132813 -1.32773437 2.58265625 -2.01171875 2.8828125 C-8.62020983 5.95069595 -12.66369466 8.54872352 -16.11328125 15.12109375 C-17.34950849 19.13474784 -17.25149611 22.8892799 -17.1875 27.0625 C-17.1865332 28.26616211 -17.1865332 28.26616211 -17.18554688 29.49414062 C-17.15797768 33.18534993 -17.00453545 36.42826272 -16 40 C-16.99 39.67 -17.98 39.34 -19 39 C-22.21105502 31.6449483 -22.40318629 23.12977903 -19.83203125 15.5625 C-16.02586426 7.57835536 -9.81487028 -0.8412746 0 0 Z " fill="#E9F0F2" transform="translate(338,215)"/>
<path d="M0 0 C1.14662109 -0.0299707 1.14662109 -0.0299707 2.31640625 -0.06054688 C8.23066353 -0.05552628 12.00925136 1.49507054 17.125 4.4375 C16.465 4.7675 15.805 5.0975 15.125 5.4375 C14.43664062 5.1384375 13.74828125 4.839375 13.0390625 4.53125 C5.75869279 1.79867156 -3.95754991 2.17799945 -11.2890625 4.53515625 C-16.59104875 7.27378551 -22.25531341 10.88548933 -24.875 16.4375 C-25.32801362 19.83759124 -25.24486231 23.0333969 -24.875 26.4375 C-27.68283492 24.03184833 -27.85794331 23.58613687 -28.3125 19.625 C-28.10234548 15.2036723 -26.86476962 12.79187567 -23.875 9.4375 C-21.00072764 7.20680286 -18.02433203 5.25677433 -14.875 3.4375 C-13.97265625 2.89351562 -13.0703125 2.34953125 -12.140625 1.7890625 C-7.96255536 0.05986143 -4.4737923 -0.04107823 0 0 Z " fill="#E8DFD7" transform="translate(205.875,220.5625)"/>
<path d="M0 0 C0.125 6.75 0.125 6.75 -1 9 C-7.36 9.36 -7.36 9.36 -10 7.875 C-11 6 -11 6 -10.9375 2.9375 C-10 0 -10 0 -8.3125 -1.5 C-5.08978889 -2.1968024 -2.99847042 -1.22664699 0 0 Z " fill="#496B6D" transform="translate(171,399)"/>
<path d="M0 0 C1.67542976 0.28604898 3.34385343 0.61781233 5 1 C5.53251766 2.91345327 6.05059483 4.8309295 6.5625 6.75 C6.85253906 7.81734375 7.14257812 8.8846875 7.44140625 9.984375 C7.9728142 12.85323468 8.1308529 14.34495406 7 17 C4.9375 18.25 4.9375 18.25 3 19 C1.17046874 13.11936382 -0.2689974 7.12347109 -1 1 C-0.67 0.67 -0.34 0.34 0 0 Z " fill="#E47E70" transform="translate(231,379)"/>
<path d="M0 0 C3.5625 0.1875 3.5625 0.1875 5.5625 2.1875 C5.8125 5.1875 5.8125 5.1875 5.5625 8.1875 C3.5625 10.1875 3.5625 10.1875 -0.0625 10.3125 C-1.17625 10.27125 -2.29 10.23 -3.4375 10.1875 C-4.92856457 7.20537087 -4.55691467 4.47140342 -4.4375 1.1875 C-3.4375 0.1875 -3.4375 0.1875 0 0 Z " fill="#2B5E5F" transform="translate(339.4375,397.8125)"/>
<path d="M0 0 C0.33 1.32 0.66 2.64 1 4 C-0.74843118 5.12743666 -2.4988094 6.2518542 -4.25 7.375 C-5.22453125 8.00148438 -6.1990625 8.62796875 -7.203125 9.2734375 C-9.43521615 10.65134852 -11.63087422 11.88312642 -14 13 C-13.49800802 9.27091669 -12.95792977 5.63852314 -12 2 C-10.37548581 1.66430703 -8.75037083 1.3315204 -7.125 1 C-6.22007812 0.814375 -5.31515625 0.62875 -4.3828125 0.4375 C-2 0 -2 0 0 0 Z " fill="#FB7E6D" transform="translate(280,378)"/>
<path d="M0 0 C1.81242052 -0.02687279 3.62495233 -0.04633715 5.4375 -0.0625 C6.44683594 -0.07410156 7.45617187 -0.08570313 8.49609375 -0.09765625 C11 0 11 0 12 1 C12.45916199 7.17199135 12.54927911 13.29447056 10 19 C7.375 20.4375 7.375 20.4375 5 21 C5.680625 20.525625 6.36125 20.05125 7.0625 19.5625 C9.27939263 16.63048071 9.21227919 16.11130972 8.8125 12.625 C8.5622136 11.07986456 8.29214967 9.53776961 8 8 C7.814375 6.824375 7.62875 5.64875 7.4375 4.4375 C7.293125 3.633125 7.14875 2.82875 7 2 C4.69 1.67 2.38 1.34 0 1 C0 0.67 0 0.34 0 0 Z " fill="#36504F" transform="translate(229,378)"/>
<path d="M0 0 C0.66 0.33 1.32 0.66 2 1 C1.154375 1.886875 0.30875 2.77375 -0.5625 3.6875 C-2.77523348 6.30551472 -2.77523348 6.30551472 -2.9375 9.75 C-2.1059527 12.1478805 -2.1059527 12.1478805 0 14 C-0.375 16.625 -0.375 16.625 -1 19 C-2.65 19 -4.3 19 -6 19 C-7.21341958 15.20806382 -7.52750495 11.95628713 -7 8 C-4.93550883 5.05293885 -2.56370499 2.51792454 0 0 Z " fill="#FC977D" transform="translate(187,229)"/>
<path d="M0 0 C1.66666667 1.66666667 3.33333333 3.33333333 5 5 C5.556875 5.433125 6.11375 5.86625 6.6875 6.3125 C8 8 8 8 8.07421875 10.69921875 C7.88279297 12.17841797 7.88279297 12.17841797 7.6875 13.6875 C7.50767578 15.17830078 7.50767578 15.17830078 7.32421875 16.69921875 C7.21722656 17.45847656 7.11023438 18.21773437 7 19 C6.67 19 6.34 19 6 19 C6 16.69 6 14.38 6 12 C3.34771188 10.92474806 0.71631546 9.90543849 -2 9 C-1.34 6.03 -0.68 3.06 0 0 Z " fill="#AEC7CD" transform="translate(275,150)"/>
<path d="M0 0 C0.66 0.33 1.32 0.66 2 1 C0.38325319 4.42946293 -1.57597677 7.56263052 -3.625 10.75 C-4.57246094 12.22726562 -4.57246094 12.22726562 -5.5390625 13.734375 C-6.26222656 14.85585938 -6.26222656 14.85585938 -7 16 C-8.65 15.67 -10.3 15.34 -12 15 C-11.13375 14.01 -10.2675 13.02 -9.375 12 C-6.05802459 8.13809292 -3.00716738 4.10552994 0 0 Z " fill="#BCC9CC" transform="translate(325,266)"/>
<path d="M0 0 C0.66 0 1.32 0 2 0 C0.57292963 4.03846204 -1.36877892 7.22134896 -3.875 10.6875 C-4.55304688 11.64011719 -5.23109375 12.59273438 -5.9296875 13.57421875 C-7.89963377 15.88240107 -9.20610224 16.92879705 -12 18 C-10.46653414 13.37346379 -7.95900925 9.97925899 -5 6.1875 C-4.54882812 5.59001953 -4.09765625 4.99253906 -3.6328125 4.37695312 C-2.47362397 2.87652419 -1.24186081 1.43275496 0 0 Z " fill="#E9F1F2" transform="translate(325,262)"/>
<path d="M0 0 C1.67542976 0.28604898 3.34385343 0.61781233 5 1 C5 3.31 5 5.62 5 8 C3.34385343 8.38218767 1.67542976 8.71395102 0 9 C-1 8 -1 8 -1.125 4.5 C-1 1 -1 1 0 0 Z " fill="#314E4A" transform="translate(212,226)"/>
<path d="M0 0 C3.11149952 3.39436311 3.42738962 5.96536177 3.625 10.5 C3.87694112 15.81926317 3.87694112 15.81926317 5 21 C4.01 20.67 3.02 20.34 2 20 C-0.04102015 15.49894232 -0.21732794 11.5183808 -0.125 6.625 C-0.10695313 5.37976563 -0.08890625 4.13453125 -0.0703125 2.8515625 C-0.04710937 1.91054687 -0.02390625 0.96953125 0 0 Z " fill="#D5E1E2" transform="translate(317,234)"/>
<path d="M0 0 C1.67542976 0.28604898 3.34385343 0.61781233 5 1 C4.67 3.31 4.34 5.62 4 8 C2.0625 8.5625 2.0625 8.5625 0 9 C-1 8 -1 8 -1.125 4.5 C-1 1 -1 1 0 0 Z " fill="#4C483F" transform="translate(199,224)"/>
<path d="M0 0 C-0.5 1.875 -0.5 1.875 -2 4 C-5.99228548 5.6327999 -10.71858719 6.62961953 -15 6 C-15.66 5.01 -16.32 4.02 -17 3 C-14.73000175 2.49622232 -12.45896997 1.99709981 -10.1875 1.5 C-8.29064453 1.08234375 -8.29064453 1.08234375 -6.35546875 0.65625 C-3 0 -3 0 0 0 Z " fill="#E3EBEC" transform="translate(198,280)"/>
<path d="M0 0 C0.99 0.33 1.98 0.66 3 1 C2.56131592 1.37809814 2.12263184 1.75619629 1.6706543 2.14575195 C-0.32477891 3.86679001 -2.31865243 5.58962528 -4.3125 7.3125 C-5.34793945 8.20485352 -5.34793945 8.20485352 -6.40429688 9.11523438 C-7.07138672 9.69208984 -7.73847656 10.26894531 -8.42578125 10.86328125 C-9.03848877 11.39219971 -9.65119629 11.92111816 -10.2824707 12.46606445 C-11.91596649 13.92494918 -13.46817279 15.43536257 -15 17 C-14.90944073 14.29328412 -14.44169908 12.5096035 -12.65332031 10.44628906 C-10.85961665 8.77155031 -9.01479216 7.1903967 -7.125 5.625 C-6.48691406 5.06683594 -5.84882813 4.50867188 -5.19140625 3.93359375 C-1.62172329 0.91538582 -1.62172329 0.91538582 0 0 Z " fill="#ECE6DD" transform="translate(223,377)"/>
<path d="M0 0 C0 0.66 0 1.32 0 2 C0.66 2.33 1.32 2.66 2 3 C-0.75924185 4.80411967 -1.88972103 5.0127245 -5.25 4.625 C-6.1575 4.41875 -7.065 4.2125 -8 4 C-8 3.34 -8 2.68 -8 2 C-11.96 2 -15.92 2 -20 2 C-20 1.67 -20 1.34 -20 1 C-17.4167588 0.83178895 -14.83342301 0.66537483 -12.25 0.5 C-11.52039063 0.45230469 -10.79078125 0.40460938 -10.0390625 0.35546875 C-6.68189836 0.14183103 -3.36563724 0 0 0 Z " fill="#1C5652" transform="translate(211,255)"/>
<path d="M0 0 C3.34183499 0.5569725 5.44790539 1.38697603 7.734375 3.92578125 C10.80748132 8.27934854 12.84863504 11.48387225 12 17 C10.00624241 15.00624241 9.35429025 13.72058684 8.25 11.1875 C6.2041131 6.91748605 3.70864414 4.86577047 0 2 C0 1.34 0 0.68 0 0 Z " fill="#ECF4F5" transform="translate(356,217)"/>
<path d="M0 0 C2.31 0 4.62 0 7 0 C7.33 1.98 7.66 3.96 8 6 C4.98968256 6.93423645 4.13349732 7.04449911 1 6 C0.67 4.02 0.34 2.04 0 0 Z " fill="#C7D0D8" transform="translate(328,401)"/>
<path d="M0 0 C-1.32 0.99 -2.64 1.98 -4 3 C-2.35 3.66 -0.7 4.32 1 5 C1 5.33 1 5.66 1 6 C-1.64 5.67 -4.28 5.34 -7 5 C-7 4.34 -7 3.68 -7 3 C-7.52078125 3.16371094 -8.0415625 3.32742187 -8.578125 3.49609375 C-11.6756875 4.14058659 -14.58841094 4.09411589 -17.75 4.0625 C-18.92046875 4.05347656 -20.0909375 4.04445313 -21.296875 4.03515625 C-22.18890625 4.02355469 -23.0809375 4.01195312 -24 4 C-24 3.67 -24 3.34 -24 3 C-22.49759766 2.81824219 -22.49759766 2.81824219 -20.96484375 2.6328125 C-19.6223597 2.46382849 -18.27991377 2.29454142 -16.9375 2.125 C-15.95233398 2.00705078 -15.95233398 2.00705078 -14.94726562 1.88671875 C-11.5636889 1.45335424 -8.39233994 0.87405452 -5.12890625 -0.1328125 C-2 -1 -2 -1 0 0 Z " fill="#3B514A" transform="translate(218,252)"/>
<path d="M0 0 C-0.33 2.64 -0.66 5.28 -1 8 C-1.33 8 -1.66 8 -2 8 C-2.33 6.35 -2.66 4.7 -3 3 C-4.32 3 -5.64 3 -7 3 C-7 5.64 -7 8.28 -7 11 C-7.99 10.67 -8.98 10.34 -10 10 C-10.08096803 8.54257537 -10.13917774 7.08387193 -10.1875 5.625 C-10.22230469 4.81289062 -10.25710937 4.00078125 -10.29296875 3.1640625 C-10.19628906 2.44992188 -10.09960938 1.73578125 -10 1 C-6.1496895 -1.56687367 -4.41430237 -0.83288724 0 0 Z " fill="#E1917B" transform="translate(219,224)"/>
<path d="M0 0 C1.16015625 0.11794922 1.16015625 0.11794922 2.34375 0.23828125 C4.5 0.6875 4.5 0.6875 7.5 2.6875 C7.5 3.3475 7.5 4.0075 7.5 4.6875 C2.22 4.0275 -3.06 3.3675 -8.5 2.6875 C-6.67144477 -0.96961046 -3.58126373 -0.39990778 0 0 Z " fill="#E3ECEC" transform="translate(347.5,213.3125)"/>
<path d="M0 0 C0.33 0 0.66 0 1 0 C1.38838614 2.79040505 1.76120046 5.58137886 2.125 8.375 C2.23714844 9.1690625 2.34929687 9.963125 2.46484375 10.78125 C2.72721267 12.84521885 2.87150738 14.92339351 3 17 C2.34 17.66 1.68 18.32 1 19 C1 16.36 1 13.72 1 11 C0.01 11 -0.98 11 -2 11 C-2 8.36 -2 5.72 -2 3 C-1.34 3 -0.68 3 0 3 C0 2.01 0 1.02 0 0 Z " fill="#406C6D" transform="translate(300,200)"/>
<path d="M0 0 C1.134375 0.020625 2.26875 0.04125 3.4375 0.0625 C3.7675 1.3825 4.0975 2.7025 4.4375 4.0625 C1.15053767 4.86203138 -0.27273192 5.15908936 -3.5625 4.0625 C-3.8925 5.3825 -4.2225 6.7025 -4.5625 8.0625 C-4.60491723 5.72955225 -4.60342937 3.39547433 -4.5625 1.0625 C-3.5625 0.0625 -3.5625 0.0625 0 0 Z " fill="#326465" transform="translate(339.5625,397.9375)"/>
<path d="M0 0 C0 0.66 0 1.32 0 2 C-3.82320557 3.42258812 -6.91281305 4.24042276 -11 4 C-11 5.65 -11 7.3 -11 9 C-10.34 9.33 -9.68 9.66 -9 10 C-11.475 11.485 -11.475 11.485 -14 13 C-13.49800802 9.27091669 -12.95792977 5.63852314 -12 2 C-10.37548581 1.66430703 -8.75037083 1.3315204 -7.125 1 C-6.22007812 0.814375 -5.31515625 0.62875 -4.3828125 0.4375 C-2 0 -2 0 0 0 Z " fill="#DC8378" transform="translate(280,378)"/>
<path d="M0 0 C0.33 0 0.66 0 1 0 C2.63052246 6.31827453 3.05049905 13.0896581 0 19 C-0.33 19 -0.66 19 -1 19 C-1.02705308 16.58325776 -1.04686438 14.1668206 -1.0625 11.75 C-1.07087891 11.06808594 -1.07925781 10.38617188 -1.08789062 9.68359375 C-1.10428392 6.30657446 -1.05628768 3.22708361 0 0 Z " fill="#D6E2E2" transform="translate(368,230)"/>
<path d="M0 0 C1.38294718 0.01329757 2.76582404 0.03715018 4.1484375 0.0703125 C4.85484375 0.07933594 5.56125 0.08835937 6.2890625 0.09765625 C8.03399848 0.12123647 9.77876045 0.15710789 11.5234375 0.1953125 C11.5234375 0.5253125 11.5234375 0.8553125 11.5234375 1.1953125 C7.5634375 1.1953125 3.6034375 1.1953125 -0.4765625 1.1953125 C-0.4765625 2.1853125 -0.4765625 3.1753125 -0.4765625 4.1953125 C-1.4665625 4.6903125 -1.4665625 4.6903125 -2.4765625 5.1953125 C-2.8065625 6.1853125 -3.1365625 7.1753125 -3.4765625 8.1953125 C-4.1365625 8.1953125 -4.7965625 8.1953125 -5.4765625 8.1953125 C-5.6015625 5.3203125 -5.6015625 5.3203125 -5.4765625 2.1953125 C-3.4765625 0.1953125 -3.4765625 0.1953125 0 0 Z " fill="#5D7C7A" transform="translate(359.4765625,397.8046875)"/>
<path d="M0 0 C0.66 0.99 1.32 1.98 2 3 C1.360625 3.474375 0.72125 3.94875 0.0625 4.4375 C-2.84850272 8.05420035 -2.80649782 11.47204894 -3 16 C-3.66 16 -4.32 16 -5 16 C-5.51257038 9.59287031 -5.13597047 6.01329753 -1 1 C-0.67 0.67 -0.34 0.34 0 0 Z " fill="#3B6B67" transform="translate(201,380)"/>
<path d="M0 0 C0.99 0 1.98 0 3 0 C2.6189482 2.76262553 2.16402868 3.84143894 0.125 5.8125 C-0.57625 6.204375 -1.2775 6.59625 -2 7 C-2.99 6.67 -3.98 6.34 -5 6 C-5 5.67 -5 5.34 -5 5 C-6.65 4.67 -8.3 4.34 -10 4 C-10 3.67 -10 3.34 -10 3 C-9.04287109 2.80083984 -9.04287109 2.80083984 -8.06640625 2.59765625 C-7.24011719 2.42105469 -6.41382813 2.24445313 -5.5625 2.0625 C-4.73878906 1.88847656 -3.91507813 1.71445313 -3.06640625 1.53515625 C-1.02338796 1.19247006 -1.02338796 1.19247006 0 0 Z " fill="#2D5455" transform="translate(227,142)"/>
<path d="M0 0 C1.32 0.33 2.64 0.66 4 1 C5.25 4.0625 5.25 4.0625 6 7 C4.68 8.32 3.36 9.64 2 11 C1.34 7.37 0.68 3.74 0 0 Z " fill="#F87D69" transform="translate(230,380)"/>
<path d="M0 0 C0.66 0.33 1.32 0.66 2 1 C1.04956626 2.33897583 0.08940853 3.67105427 -0.875 5 C-1.40867188 5.7425 -1.94234375 6.485 -2.4921875 7.25 C-2.98976562 7.8275 -3.48734375 8.405 -4 9 C-4.66 9 -5.32 9 -6 9 C-5.67 12.3 -5.34 15.6 -5 19 C-7.20762502 14.58474997 -7.72578755 12.8385837 -7 8 C-4.93211079 5.05544953 -2.5637182 2.51793752 0 0 Z " fill="#F4A693" transform="translate(187,229)"/>
<path d="M0 0 C0.99 0 1.98 0 3 0 C1.84414715 3.91211733 0.64465038 6.8745041 -2 10 C-2.33 7.36 -2.66 4.72 -3 2 C-2.34 2 -1.68 2 -1 2 C-0.67 1.34 -0.34 0.68 0 0 Z " fill="#396566" transform="translate(341,326)"/>
<path d="M0 0 C0.33 0 0.66 0 1 0 C0.67 3.3 0.34 6.6 0 10 C-0.66 10 -1.32 10 -2 10 C-2 12.97 -2 15.94 -2 19 C-2.33 19 -2.66 19 -3 19 C-3.35368021 11.87399867 -2.95671348 6.52940894 0 0 Z " fill="#6B8783" transform="translate(194,115)"/>
<path d="M0 0 C0.99 0.33 1.98 0.66 3 1 C3 1.66 3 2.32 3 3 C3.66 3 4.32 3 5 3 C4.25 8.75 4.25 8.75 2 11 C1.67 8.36 1.34 5.72 1 3 C0.34 3 -0.32 3 -1 3 C-0.67 2.01 -0.34 1.02 0 0 Z " fill="#416B6A" transform="translate(143,300)"/>
<path d="M0 0 C0.99 0 1.98 0 3 0 C1.125 4.75 1.125 4.75 0 7 C-2.475 6.01 -2.475 6.01 -5 5 C-3.625 3.5 -3.625 3.5 -2 2 C-1.34 2 -0.68 2 0 2 C0 1.34 0 0.68 0 0 Z " fill="#BDCED7" transform="translate(192,284)"/>
<path d="M0 0 C0.66 0 1.32 0 2 0 C2 4.29 2 8.58 2 13 C-1 10 -1 10 -1.328125 8.02734375 C-1.11111111 2.22222222 -1.11111111 2.22222222 0 0 Z " fill="#F2ECE8" transform="translate(179,234)"/>
<path d="M0 0 C0.99 0.33 1.98 0.66 3 1 C3.33 2.65 3.66 4.3 4 6 C1.03 5.505 1.03 5.505 -2 5 C-1.125 1.125 -1.125 1.125 0 0 Z " fill="#BCCAD5" transform="translate(275,154)"/>
<path d="M0 0 C0.66 0.33 1.32 0.66 2 1 C2.40729228 3.32156597 2.74438677 5.6568787 3 8 C1.35 8 -0.3 8 -2 8 C-1.34 5.36 -0.68 2.72 0 0 Z " fill="#285659" transform="translate(163,399)"/>
<path d="M0 0 C1.57554035 2.88628401 2.46276373 5.53342384 3.125 8.75 C3.29257812 9.54921875 3.46015625 10.3484375 3.6328125 11.171875 C3.81457031 12.07679688 3.81457031 12.07679688 4 13 C3.01 12.67 2.02 12.34 1 12 C0.03929566 9.11788698 -0.10581883 7.30149956 -0.0625 4.3125 C-0.05347656 3.50425781 -0.04445313 2.69601563 -0.03515625 1.86328125 C-0.02355469 1.24839844 -0.01195312 0.63351563 0 0 Z " fill="#EDF5F6" transform="translate(318,242)"/>
<path d="M0 0 C0.33 0.99 0.66 1.98 1 3 C-0.43359375 5.04296875 -0.43359375 5.04296875 -2.4375 7.1875 C-3.09621094 7.90292969 -3.75492187 8.61835938 -4.43359375 9.35546875 C-4.95050781 9.89816406 -5.46742188 10.44085938 -6 11 C-6.66 10.67 -7.32 10.34 -8 10 C-5.36 6.7 -2.72 3.4 0 0 Z " fill="#AFC6CC" transform="translate(350,229)"/>
<path d="M0 0 C0.99 0 1.98 0 3 0 C1.515 5.445 1.515 5.445 0 11 C-0.33 11 -0.66 11 -1 11 C-1.125 3.375 -1.125 3.375 0 0 Z " fill="#EEF5F6" transform="translate(319,229)"/>
<path d="M0 0 C0 4.05345102 -1.58160112 5.8215329 -4 9 C-4.99 9.33 -5.98 9.66 -7 10 C-5.33248852 6.05860922 -2.77289351 3.2107188 0 0 Z " fill="#B7CCD3" transform="translate(357,247)"/>
<path d="M0 0 C0.66 0.33 1.32 0.66 2 1 C1.67 1.66 1.34 2.32 1 3 C1.66 3 2.32 3 3 3 C3 3.66 3 4.32 3 5 C1.35 5.33 -0.3 5.66 -2 6 C-2.33 5.01 -2.66 4.02 -3 3 C-2.01 2.01 -1.02 1.02 0 0 Z " fill="#F77F68" transform="translate(223,240)"/>
<path d="M0 0 C2.01822917 0.06510417 4.03645833 0.13020833 6.0546875 0.1953125 C5.7246875 2.5053125 5.3946875 4.8153125 5.0546875 7.1953125 C4.7246875 7.1953125 4.3946875 7.1953125 4.0546875 7.1953125 C3.7246875 5.5453125 3.3946875 3.8953125 3.0546875 2.1953125 C0.7446875 2.1953125 -1.5653125 2.1953125 -3.9453125 2.1953125 C-1.9453125 0.1953125 -1.9453125 0.1953125 0 0 Z " fill="#E89D8D" transform="translate(199.9453125,222.8046875)"/>
<path d="M0 0 C0.99 0.33 1.98 0.66 3 1 C-1.455 4.465 -1.455 4.465 -6 8 C-6.66 7.67 -7.32 7.34 -8 7 C-6.74057614 5.80040625 -5.46704714 4.61560557 -4.1875 3.4375 C-3.12595703 2.44556641 -3.12595703 2.44556641 -2.04296875 1.43359375 C-1.36878906 0.96050781 -0.69460937 0.48742187 0 0 Z " fill="#F5A18F" transform="translate(225,378)"/>
<path d="M0 0 C0.99 0.33 1.98 0.66 3 1 C1.90716423 2.03295436 0.80029421 3.05107835 -0.3125 4.0625 C-0.92738281 4.63097656 -1.54226562 5.19945312 -2.17578125 5.78515625 C-2.77777344 6.18605469 -3.37976563 6.58695312 -4 7 C-4.99 6.67 -5.98 6.34 -7 6 C-5.90716423 4.96704564 -4.80029421 3.94892165 -3.6875 2.9375 C-3.07261719 2.36902344 -2.45773438 1.80054688 -1.82421875 1.21484375 C-0.92123047 0.61349609 -0.92123047 0.61349609 0 0 Z " fill="#DDDAD2" transform="translate(223,377)"/>
<path d="M0 0 C-2.31 1.65 -4.62 3.3 -7 5 C-7.33 3.35 -7.66 1.7 -8 0 C-4.71303767 -0.79953138 -3.28976808 -1.09658936 0 0 Z " fill="#ACC7CA" transform="translate(321,341)"/>
<path d="M0 0 C5.75 1.625 5.75 1.625 8 5 C7.01 5.33 6.02 5.66 5 6 C2.3125 4.1875 2.3125 4.1875 0 2 C0 1.34 0 0.68 0 0 Z " fill="#E2EDEE" transform="translate(356,217)"/>
<path d="M0 0 C0.66 0.33 1.32 0.66 2 1 C2 1.66 2 2.32 2 3 C3.65 2.67 5.3 2.34 7 2 C4.63707344 4.52588702 3.33537489 5.88820837 0 7 C0.33 5.35 0.66 3.7 1 2 C0.34 1.67 -0.32 1.34 -1 1 C-0.67 0.67 -0.34 0.34 0 0 Z " fill="#DE8473" transform="translate(219,243)"/>
<path d="M0 0 C0.99 0 1.98 0 3 0 C2.67 1.98 2.34 3.96 2 6 C1.01 6 0.02 6 -1 6 C-0.67 4.02 -0.34 2.04 0 0 Z " fill="#1E4D4E" transform="translate(200,225)"/>
<path d="M0 0 C2.475 0.495 2.475 0.495 5 1 C5.33 2.65 5.66 4.3 6 6 C5.01 6 4.02 6 3 6 C2.01 4.02 1.02 2.04 0 0 Z " fill="#BDCFD5" transform="translate(277,145)"/>
<path d="M0 0 C0.90105469 0.02707031 1.80210937 0.05414063 2.73046875 0.08203125 C3.76107422 0.13423828 3.76107422 0.13423828 4.8125 0.1875 C4.8125 0.5175 4.8125 0.8475 4.8125 1.1875 C2.9871875 1.4040625 2.9871875 1.4040625 1.125 1.625 C-2.01420377 2.01530953 -5.0950134 2.51101856 -8.1875 3.1875 C-5.67753317 0.01043235 -3.96125134 -0.15433447 0 0 Z " fill="#52524B" transform="translate(289.1875,394.8125)"/>
<path d="M0 0 C0 3.10551666 -0.5393715 4.35261084 -2 7 C-3.5 5.625 -3.5 5.625 -5 4 C-5 3.34 -5 2.68 -5 2 C-3.35 1.34 -1.7 0.68 0 0 Z " fill="#B8D0D6" transform="translate(163,308)"/>
<path d="M0 0 C0 0.66 0 1.32 0 2 C-2.64 2 -5.28 2 -8 2 C-6.14210462 -1.71579076 -3.44525918 -1.06921837 0 0 Z " fill="#F0F6F7" transform="translate(347,214)"/>
<path d="M0 0 C1.65 0.33 3.3 0.66 5 1 C4.01 2.32 3.02 3.64 2 5 C1.01 4.34 0.02 3.68 -1 3 C-0.67 2.01 -0.34 1.02 0 0 Z " fill="#2E5A5F" transform="translate(355,212)"/>
<path d="M0 0 C0.66 0 1.32 0 2 0 C0.60667426 3.36720387 -0.9789286 4.9859524 -4 7 C-4 5.68 -4 4.36 -4 3 C-2.68 2.67 -1.36 2.34 0 2 C0 1.34 0 0.68 0 0 Z " fill="#415E5D" transform="translate(328,346)"/>
<path d="M0 0 C0.66 0 1.32 0 2 0 C0.52307692 4.67692308 0.52307692 4.67692308 -2.125 6.3125 C-3.053125 6.6528125 -3.053125 6.6528125 -4 7 C-2.92598892 4.08482708 -2.22189824 2.22189824 0 0 Z " fill="#E3EBED" transform="translate(325,262)"/>
<path d="M0 0 C-6.75 4 -6.75 4 -9 4 C-8.67 3.01 -8.34 2.02 -8 1 C-2.59770115 -1.29885057 -2.59770115 -1.29885057 0 0 Z " fill="#B9D1D6" transform="translate(270,251)"/>
<path d="M0 0 C0.33 0.99 0.66 1.98 1 3 C-0.8125 5.6875 -0.8125 5.6875 -3 8 C-3.66 8 -4.32 8 -5 8 C-3.62845496 5.04590299 -2.01136276 2.55991624 0 0 Z " fill="#B5CBD2" transform="translate(339,243)"/>
<path d="M0 0 C2.35953094 2.35953094 2.49141413 3.77895617 3 7 C2.01 7.33 1.02 7.66 0 8 C-0.38063221 5.6739143 -0.71269945 3.33944736 -1 1 C-0.67 0.67 -0.34 0.34 0 0 Z " fill="#3D6B67" transform="translate(297,193)"/>
<path d="M0 0 C0 0.99 0 1.98 0 3 C-2.5 5.1875 -2.5 5.1875 -5 7 C-5.66 6.01 -6.32 5.02 -7 4 C-6.030625 3.525625 -5.06125 3.05125 -4.0625 2.5625 C-1.19522563 1.29806053 -1.19522563 1.29806053 0 0 Z " fill="#B5C6CD" transform="translate(229,145)"/>
<path d="M0 0 C0.99 1.32 1.98 2.64 3 4 C1.68 4.33 0.36 4.66 -1 5 C-1.33 4.34 -1.66 3.68 -2 3 C-4.52733235 2.34444881 -4.52733235 2.34444881 -7 2 C-7 1.67 -7 1.34 -7 1 C-3.535 0.505 -3.535 0.505 0 0 Z " fill="#3F6767" transform="translate(224,144)"/>
<path d="M0 0 C0.66 0 1.32 0 2 0 C3.38232443 1.62626404 4.71937515 3.2925002 6 5 C5.01 5.66 4.02 6.32 3 7 C0 2.25 0 2.25 0 0 Z " fill="#BCCACD" transform="translate(203,132)"/>
<path d="M0 0 C0 3.90838866 -1.50567876 5.11594107 -4 8 C-4.66 7.67 -5.32 7.34 -6 7 C-4.02 4.69 -2.04 2.38 0 0 Z " fill="#466364" transform="translate(202,105)"/>
</svg>
